<?xml version="1.0" ?><!DOCTYPE svg  PUBLIC '-//W3C//DTD SVG 1.1//EN'  'http://www.w3.org/Graphics/SVG/1.1/DTD/svg11.dtd'><svg enable-background="new 0 0 158.299 158.299" height="158.299" id="Layer_1" overflow="visible" version="1.1" viewBox="0 0 158.299 158.299" width="158.299" xml:space="preserve" xmlns="http://www.w3.org/2000/svg" xmlns:xlink="http://www.w3.org/1999/xlink"><g id="icon"><circle cx="79.15" cy="79.149" fill="#1AB7EA" r="79.149"/><path d="M65.44,119.919c-4.729-3.936-6.697-8.271-11.433-26.604C49.089,75.19,46.517,68.293,43.763,67.31   c-3.542,0-5.91,1.577-9.064,3.151c-1.377-1.774-2.754-3.348-4.139-5.123l7.687-7.287C51.45,45.635,58.35,42.48,64.056,46.422   c3.752,2.565,5.326,6.7,7.687,20.1c2.958,16.548,5.123,24.038,7.491,26.21c1.968,1.777,2.164,1.581,5.122-1.188   c4.729-4.525,10.639-16.352,10.639-21.474c0-5.323-2.368-6.896-8.474-5.913l-4.14,0.59l1.771-4.335   c2.368-5.91,8.277-12.613,13.407-14.974c5.72-2.561,13.793-2.561,18.129,0c4.328,2.562,5.909,7.884,5.509,16.749   c-0.591,9.064-5.509,19.113-16.745,34.093c-16.744,22.458-30.152,30.342-38.626,23.048L65.44,119.919L65.44,119.919z" fill="#FFFFFF"/></g></svg>